OFF
16 28 0
0.5 0.5 0.0
0.3535 0.5 0.3535
0.0 0.5 0.5
-0.3535 0.5 0.3535
-0.5 0.5 0.0
-0.3535 0.5 -0.3535
0.0 0.5 -0.5
0.3535 0.5 -0.3535
0.5 -0.5 0.0
0.3535 -0.5 0.3535
0.0 -0.5 0.5
-0.3535 -0.5 0.3535
-0.5 -0.5 0.0
-0.3535 -0.5 -0.3535
0.0 -0.5 -0.5
0.3535 -0.5 -0.3535
3 0 7 6
3 0 6 5
3 0 5 4
3 0 4 3
3 0 3 2
3 0 2 1
3 8 9 10
3 8 10 11
3 8 11 12
3 8 12 13
3 8 13 14
3 8 14 15
3 0 9 8
3 0 1 9
3 1 10 9
3 1 2 10
3 2 11 10
3 2 3 11
3 3 12 11
3 3 4 12
3 4 13 12
3 4 5 13
3 5 14 13
3 5 6 14
3 6 15 14
3 6 7 15
3 7 8 15
3 7 0 8